<mxfile host="Electron" agent="Mozilla/5.0 (Windows NT 10.0; Win64; x64) AppleWebKit/537.36 (KHTML, like Gecko) draw.io/24.7.5 Chrome/126.0.6478.183 Electron/31.3.0 Safari/537.36" version="24.7.5" pages="3">
  <diagram name="root_val" id="zgt0ExfEEiG_xWLwjpGU">
    <mxGraphModel dx="1491" dy="1289" grid="1" gridSize="10" guides="1" tooltips="1" connect="1" arrows="1" fold="1" page="1" pageScale="1" pageWidth="827" pageHeight="1169" math="0" shadow="0">
      <root>
        <mxCell id="0" />
        <mxCell id="1" parent="0" />
        <mxCell id="fr0xDF6OfTBycA6lLAMu-1" value="Folder" style="rounded=0;whiteSpace=wrap;html=1;fillColor=#fff2cc;strokeColor=#d6b656;" parent="1" vertex="1">
          <mxGeometry width="120" height="40" as="geometry" />
        </mxCell>
        <mxCell id="fr0xDF6OfTBycA6lLAMu-2" value="File" style="rounded=0;whiteSpace=wrap;html=1;fillColor=#d5e8d4;strokeColor=#82b366;" parent="1" vertex="1">
          <mxGeometry x="160" width="120" height="40" as="geometry" />
        </mxCell>
        <mxCell id="fr0xDF6OfTBycA6lLAMu-10" style="edgeStyle=orthogonalEdgeStyle;rounded=0;orthogonalLoop=1;jettySize=auto;html=1;entryX=0;entryY=0.5;entryDx=0;entryDy=0;" parent="1" source="fr0xDF6OfTBycA6lLAMu-3" target="fr0xDF6OfTBycA6lLAMu-4" edge="1">
          <mxGeometry relative="1" as="geometry" />
        </mxCell>
        <mxCell id="fr0xDF6OfTBycA6lLAMu-11" style="edgeStyle=orthogonalEdgeStyle;rounded=0;orthogonalLoop=1;jettySize=auto;html=1;entryX=0;entryY=0.5;entryDx=0;entryDy=0;" parent="1" source="fr0xDF6OfTBycA6lLAMu-3" target="fr0xDF6OfTBycA6lLAMu-5" edge="1">
          <mxGeometry relative="1" as="geometry" />
        </mxCell>
        <mxCell id="fr0xDF6OfTBycA6lLAMu-12" style="edgeStyle=orthogonalEdgeStyle;rounded=0;orthogonalLoop=1;jettySize=auto;html=1;entryX=0;entryY=0.5;entryDx=0;entryDy=0;" parent="1" source="fr0xDF6OfTBycA6lLAMu-3" target="fr0xDF6OfTBycA6lLAMu-6" edge="1">
          <mxGeometry relative="1" as="geometry" />
        </mxCell>
        <mxCell id="fr0xDF6OfTBycA6lLAMu-13" style="edgeStyle=orthogonalEdgeStyle;rounded=0;orthogonalLoop=1;jettySize=auto;html=1;entryX=0;entryY=0.5;entryDx=0;entryDy=0;" parent="1" source="fr0xDF6OfTBycA6lLAMu-3" target="fr0xDF6OfTBycA6lLAMu-7" edge="1">
          <mxGeometry relative="1" as="geometry" />
        </mxCell>
        <mxCell id="fr0xDF6OfTBycA6lLAMu-14" style="edgeStyle=orthogonalEdgeStyle;rounded=0;orthogonalLoop=1;jettySize=auto;html=1;entryX=0;entryY=0.5;entryDx=0;entryDy=0;" parent="1" source="fr0xDF6OfTBycA6lLAMu-3" target="fr0xDF6OfTBycA6lLAMu-8" edge="1">
          <mxGeometry relative="1" as="geometry" />
        </mxCell>
        <mxCell id="fr0xDF6OfTBycA6lLAMu-15" style="edgeStyle=orthogonalEdgeStyle;rounded=0;orthogonalLoop=1;jettySize=auto;html=1;entryX=0;entryY=0.5;entryDx=0;entryDy=0;" parent="1" source="fr0xDF6OfTBycA6lLAMu-3" target="fr0xDF6OfTBycA6lLAMu-9" edge="1">
          <mxGeometry relative="1" as="geometry" />
        </mxCell>
        <mxCell id="fr0xDF6OfTBycA6lLAMu-3" value="validation_root" style="rounded=0;whiteSpace=wrap;html=1;fillColor=#fff2cc;strokeColor=#d6b656;" parent="1" vertex="1">
          <mxGeometry y="160" width="120" height="40" as="geometry" />
        </mxCell>
        <mxCell id="fr0xDF6OfTBycA6lLAMu-4" value="01_default_files" style="rounded=0;whiteSpace=wrap;html=1;fillColor=#fff2cc;strokeColor=#d6b656;" parent="1" vertex="1">
          <mxGeometry x="200" y="160" width="120" height="40" as="geometry" />
        </mxCell>
        <mxCell id="fr0xDF6OfTBycA6lLAMu-17" value="" style="edgeStyle=orthogonalEdgeStyle;rounded=0;orthogonalLoop=1;jettySize=auto;html=1;" parent="1" source="fr0xDF6OfTBycA6lLAMu-5" target="fr0xDF6OfTBycA6lLAMu-16" edge="1">
          <mxGeometry relative="1" as="geometry" />
        </mxCell>
        <mxCell id="fr0xDF6OfTBycA6lLAMu-92" style="edgeStyle=orthogonalEdgeStyle;rounded=0;orthogonalLoop=1;jettySize=auto;html=1;entryX=0;entryY=0.5;entryDx=0;entryDy=0;" parent="1" source="fr0xDF6OfTBycA6lLAMu-5" target="fr0xDF6OfTBycA6lLAMu-18" edge="1">
          <mxGeometry relative="1" as="geometry" />
        </mxCell>
        <mxCell id="fr0xDF6OfTBycA6lLAMu-5" value="02_pose_estimation" style="rounded=0;whiteSpace=wrap;html=1;fillColor=#fff2cc;strokeColor=#d6b656;" parent="1" vertex="1">
          <mxGeometry x="200" y="240" width="120" height="40" as="geometry" />
        </mxCell>
        <mxCell id="fr0xDF6OfTBycA6lLAMu-48" style="edgeStyle=orthogonalEdgeStyle;rounded=0;orthogonalLoop=1;jettySize=auto;html=1;entryX=0;entryY=0.5;entryDx=0;entryDy=0;" parent="1" source="fr0xDF6OfTBycA6lLAMu-6" target="fr0xDF6OfTBycA6lLAMu-44" edge="1">
          <mxGeometry relative="1" as="geometry" />
        </mxCell>
        <mxCell id="fr0xDF6OfTBycA6lLAMu-49" style="edgeStyle=orthogonalEdgeStyle;rounded=0;orthogonalLoop=1;jettySize=auto;html=1;entryX=0;entryY=0.5;entryDx=0;entryDy=0;" parent="1" source="fr0xDF6OfTBycA6lLAMu-6" target="fr0xDF6OfTBycA6lLAMu-45" edge="1">
          <mxGeometry relative="1" as="geometry" />
        </mxCell>
        <mxCell id="fr0xDF6OfTBycA6lLAMu-50" style="edgeStyle=orthogonalEdgeStyle;rounded=0;orthogonalLoop=1;jettySize=auto;html=1;entryX=0;entryY=0.5;entryDx=0;entryDy=0;" parent="1" source="fr0xDF6OfTBycA6lLAMu-6" target="fr0xDF6OfTBycA6lLAMu-46" edge="1">
          <mxGeometry relative="1" as="geometry" />
        </mxCell>
        <mxCell id="fr0xDF6OfTBycA6lLAMu-51" style="edgeStyle=orthogonalEdgeStyle;rounded=0;orthogonalLoop=1;jettySize=auto;html=1;entryX=0;entryY=0.5;entryDx=0;entryDy=0;" parent="1" source="fr0xDF6OfTBycA6lLAMu-6" target="fr0xDF6OfTBycA6lLAMu-47" edge="1">
          <mxGeometry relative="1" as="geometry" />
        </mxCell>
        <mxCell id="fr0xDF6OfTBycA6lLAMu-6" value="03_data" style="rounded=0;whiteSpace=wrap;html=1;fillColor=#fff2cc;strokeColor=#d6b656;" parent="1" vertex="1">
          <mxGeometry x="200" y="560" width="120" height="40" as="geometry" />
        </mxCell>
        <mxCell id="dzoGqHYVTmevsI7cQEQ--5" value="" style="edgeStyle=orthogonalEdgeStyle;rounded=0;orthogonalLoop=1;jettySize=auto;html=1;" edge="1" parent="1" source="fr0xDF6OfTBycA6lLAMu-7" target="dzoGqHYVTmevsI7cQEQ--4">
          <mxGeometry relative="1" as="geometry" />
        </mxCell>
        <mxCell id="dzoGqHYVTmevsI7cQEQ--8" style="edgeStyle=orthogonalEdgeStyle;rounded=0;orthogonalLoop=1;jettySize=auto;html=1;entryX=0;entryY=0.5;entryDx=0;entryDy=0;" edge="1" parent="1" source="fr0xDF6OfTBycA6lLAMu-7" target="dzoGqHYVTmevsI7cQEQ--6">
          <mxGeometry relative="1" as="geometry" />
        </mxCell>
        <mxCell id="dzoGqHYVTmevsI7cQEQ--9" style="edgeStyle=orthogonalEdgeStyle;rounded=0;orthogonalLoop=1;jettySize=auto;html=1;entryX=0;entryY=0.5;entryDx=0;entryDy=0;" edge="1" parent="1" source="fr0xDF6OfTBycA6lLAMu-7" target="dzoGqHYVTmevsI7cQEQ--7">
          <mxGeometry relative="1" as="geometry" />
        </mxCell>
        <mxCell id="fr0xDF6OfTBycA6lLAMu-7" value="04_statistics" style="rounded=0;whiteSpace=wrap;html=1;fillColor=#fff2cc;strokeColor=#d6b656;" parent="1" vertex="1">
          <mxGeometry x="200" y="1120" width="120" height="40" as="geometry" />
        </mxCell>
        <mxCell id="fr0xDF6OfTBycA6lLAMu-72" value="" style="edgeStyle=orthogonalEdgeStyle;rounded=0;orthogonalLoop=1;jettySize=auto;html=1;" parent="1" source="fr0xDF6OfTBycA6lLAMu-8" target="fr0xDF6OfTBycA6lLAMu-71" edge="1">
          <mxGeometry relative="1" as="geometry" />
        </mxCell>
        <mxCell id="fr0xDF6OfTBycA6lLAMu-85" style="edgeStyle=orthogonalEdgeStyle;rounded=0;orthogonalLoop=1;jettySize=auto;html=1;entryX=0;entryY=0.5;entryDx=0;entryDy=0;" parent="1" source="fr0xDF6OfTBycA6lLAMu-8" target="fr0xDF6OfTBycA6lLAMu-79" edge="1">
          <mxGeometry relative="1" as="geometry" />
        </mxCell>
        <mxCell id="fr0xDF6OfTBycA6lLAMu-86" style="edgeStyle=orthogonalEdgeStyle;rounded=0;orthogonalLoop=1;jettySize=auto;html=1;entryX=0;entryY=0.5;entryDx=0;entryDy=0;" parent="1" source="fr0xDF6OfTBycA6lLAMu-8" target="fr0xDF6OfTBycA6lLAMu-80" edge="1">
          <mxGeometry relative="1" as="geometry" />
        </mxCell>
        <mxCell id="fr0xDF6OfTBycA6lLAMu-87" style="edgeStyle=orthogonalEdgeStyle;rounded=0;orthogonalLoop=1;jettySize=auto;html=1;entryX=0;entryY=0.5;entryDx=0;entryDy=0;" parent="1" source="fr0xDF6OfTBycA6lLAMu-8" target="fr0xDF6OfTBycA6lLAMu-81" edge="1">
          <mxGeometry relative="1" as="geometry" />
        </mxCell>
        <mxCell id="fr0xDF6OfTBycA6lLAMu-88" style="edgeStyle=orthogonalEdgeStyle;rounded=0;orthogonalLoop=1;jettySize=auto;html=1;entryX=0;entryY=0.5;entryDx=0;entryDy=0;" parent="1" source="fr0xDF6OfTBycA6lLAMu-8" target="fr0xDF6OfTBycA6lLAMu-82" edge="1">
          <mxGeometry relative="1" as="geometry" />
        </mxCell>
        <mxCell id="fr0xDF6OfTBycA6lLAMu-89" style="edgeStyle=orthogonalEdgeStyle;rounded=0;orthogonalLoop=1;jettySize=auto;html=1;entryX=0;entryY=0.5;entryDx=0;entryDy=0;" parent="1" source="fr0xDF6OfTBycA6lLAMu-8" target="fr0xDF6OfTBycA6lLAMu-83" edge="1">
          <mxGeometry relative="1" as="geometry" />
        </mxCell>
        <mxCell id="fr0xDF6OfTBycA6lLAMu-90" style="edgeStyle=orthogonalEdgeStyle;rounded=0;orthogonalLoop=1;jettySize=auto;html=1;entryX=0;entryY=0.5;entryDx=0;entryDy=0;" parent="1" source="fr0xDF6OfTBycA6lLAMu-8" target="fr0xDF6OfTBycA6lLAMu-84" edge="1">
          <mxGeometry relative="1" as="geometry" />
        </mxCell>
        <mxCell id="fr0xDF6OfTBycA6lLAMu-8" value="05_logs" style="rounded=0;whiteSpace=wrap;html=1;fillColor=#fff2cc;strokeColor=#d6b656;" parent="1" vertex="1">
          <mxGeometry x="200" y="1360" width="120" height="40" as="geometry" />
        </mxCell>
        <mxCell id="fr0xDF6OfTBycA6lLAMu-9" value="06_metrabs_models" style="rounded=0;whiteSpace=wrap;html=1;fillColor=#fff2cc;strokeColor=#d6b656;" parent="1" vertex="1">
          <mxGeometry x="200" y="1440" width="120" height="40" as="geometry" />
        </mxCell>
        <mxCell id="fr0xDF6OfTBycA6lLAMu-20" value="" style="edgeStyle=orthogonalEdgeStyle;rounded=0;orthogonalLoop=1;jettySize=auto;html=1;" parent="1" source="fr0xDF6OfTBycA6lLAMu-16" target="fr0xDF6OfTBycA6lLAMu-19" edge="1">
          <mxGeometry relative="1" as="geometry" />
        </mxCell>
        <mxCell id="fr0xDF6OfTBycA6lLAMu-42" style="edgeStyle=orthogonalEdgeStyle;rounded=0;orthogonalLoop=1;jettySize=auto;html=1;entryX=0;entryY=0.5;entryDx=0;entryDy=0;" parent="1" source="fr0xDF6OfTBycA6lLAMu-16" target="fr0xDF6OfTBycA6lLAMu-39" edge="1">
          <mxGeometry relative="1" as="geometry" />
        </mxCell>
        <mxCell id="fr0xDF6OfTBycA6lLAMu-43" style="edgeStyle=orthogonalEdgeStyle;rounded=0;orthogonalLoop=1;jettySize=auto;html=1;entryX=0;entryY=0.5;entryDx=0;entryDy=0;" parent="1" source="fr0xDF6OfTBycA6lLAMu-16" target="fr0xDF6OfTBycA6lLAMu-40" edge="1">
          <mxGeometry relative="1" as="geometry" />
        </mxCell>
        <mxCell id="fr0xDF6OfTBycA6lLAMu-16" value="01_unfiltered" style="rounded=0;whiteSpace=wrap;html=1;fillColor=#fff2cc;strokeColor=#d6b656;" parent="1" vertex="1">
          <mxGeometry x="400" y="240" width="120" height="40" as="geometry" />
        </mxCell>
        <mxCell id="fr0xDF6OfTBycA6lLAMu-18" value="02_filtered" style="rounded=0;whiteSpace=wrap;html=1;fillColor=#fff2cc;strokeColor=#d6b656;" parent="1" vertex="1">
          <mxGeometry x="400" y="320" width="120" height="40" as="geometry" />
        </mxCell>
        <mxCell id="fr0xDF6OfTBycA6lLAMu-23" value="" style="edgeStyle=orthogonalEdgeStyle;rounded=0;orthogonalLoop=1;jettySize=auto;html=1;" parent="1" source="fr0xDF6OfTBycA6lLAMu-19" target="fr0xDF6OfTBycA6lLAMu-22" edge="1">
          <mxGeometry relative="1" as="geometry" />
        </mxCell>
        <mxCell id="fr0xDF6OfTBycA6lLAMu-36" style="edgeStyle=orthogonalEdgeStyle;rounded=0;orthogonalLoop=1;jettySize=auto;html=1;entryX=0;entryY=0.5;entryDx=0;entryDy=0;" parent="1" source="fr0xDF6OfTBycA6lLAMu-19" target="fr0xDF6OfTBycA6lLAMu-33" edge="1">
          <mxGeometry relative="1" as="geometry" />
        </mxCell>
        <mxCell id="fr0xDF6OfTBycA6lLAMu-37" style="edgeStyle=orthogonalEdgeStyle;rounded=0;orthogonalLoop=1;jettySize=auto;html=1;entryX=0;entryY=0.5;entryDx=0;entryDy=0;" parent="1" source="fr0xDF6OfTBycA6lLAMu-19" target="fr0xDF6OfTBycA6lLAMu-34" edge="1">
          <mxGeometry relative="1" as="geometry" />
        </mxCell>
        <mxCell id="fr0xDF6OfTBycA6lLAMu-38" style="edgeStyle=orthogonalEdgeStyle;rounded=0;orthogonalLoop=1;jettySize=auto;html=1;entryX=0;entryY=0.5;entryDx=0;entryDy=0;" parent="1" source="fr0xDF6OfTBycA6lLAMu-19" target="fr0xDF6OfTBycA6lLAMu-35" edge="1">
          <mxGeometry relative="1" as="geometry" />
        </mxCell>
        <mxCell id="fr0xDF6OfTBycA6lLAMu-19" value="P07" style="rounded=0;whiteSpace=wrap;html=1;fillColor=#fff2cc;strokeColor=#d6b656;" parent="1" vertex="1">
          <mxGeometry x="600" y="240" width="120" height="40" as="geometry" />
        </mxCell>
        <mxCell id="fr0xDF6OfTBycA6lLAMu-25" value="" style="edgeStyle=orthogonalEdgeStyle;rounded=0;orthogonalLoop=1;jettySize=auto;html=1;" parent="1" source="fr0xDF6OfTBycA6lLAMu-22" target="fr0xDF6OfTBycA6lLAMu-24" edge="1">
          <mxGeometry relative="1" as="geometry" />
        </mxCell>
        <mxCell id="fr0xDF6OfTBycA6lLAMu-26" value="" style="edgeStyle=orthogonalEdgeStyle;rounded=0;orthogonalLoop=1;jettySize=auto;html=1;" parent="1" source="fr0xDF6OfTBycA6lLAMu-22" target="fr0xDF6OfTBycA6lLAMu-24" edge="1">
          <mxGeometry relative="1" as="geometry" />
        </mxCell>
        <mxCell id="fr0xDF6OfTBycA6lLAMu-30" style="edgeStyle=orthogonalEdgeStyle;rounded=0;orthogonalLoop=1;jettySize=auto;html=1;entryX=0;entryY=0.5;entryDx=0;entryDy=0;" parent="1" source="fr0xDF6OfTBycA6lLAMu-22" target="fr0xDF6OfTBycA6lLAMu-27" edge="1">
          <mxGeometry relative="1" as="geometry" />
        </mxCell>
        <mxCell id="fr0xDF6OfTBycA6lLAMu-31" style="edgeStyle=orthogonalEdgeStyle;rounded=0;orthogonalLoop=1;jettySize=auto;html=1;entryX=0;entryY=0.5;entryDx=0;entryDy=0;" parent="1" source="fr0xDF6OfTBycA6lLAMu-22" target="fr0xDF6OfTBycA6lLAMu-28" edge="1">
          <mxGeometry relative="1" as="geometry" />
        </mxCell>
        <mxCell id="fr0xDF6OfTBycA6lLAMu-32" style="edgeStyle=orthogonalEdgeStyle;rounded=0;orthogonalLoop=1;jettySize=auto;html=1;entryX=0;entryY=0.5;entryDx=0;entryDy=0;" parent="1" source="fr0xDF6OfTBycA6lLAMu-22" target="fr0xDF6OfTBycA6lLAMu-29" edge="1">
          <mxGeometry relative="1" as="geometry" />
        </mxCell>
        <mxCell id="fr0xDF6OfTBycA6lLAMu-22" value="P07_cam1" style="rounded=0;whiteSpace=wrap;html=1;fillColor=#fff2cc;strokeColor=#d6b656;" parent="1" vertex="1">
          <mxGeometry x="800" y="240" width="120" height="40" as="geometry" />
        </mxCell>
        <mxCell id="fr0xDF6OfTBycA6lLAMu-24" value="openpose" style="rounded=0;whiteSpace=wrap;html=1;fillColor=#fff2cc;strokeColor=#d6b656;" parent="1" vertex="1">
          <mxGeometry x="1000" y="240" width="120" height="40" as="geometry" />
        </mxCell>
        <mxCell id="fr0xDF6OfTBycA6lLAMu-27" value="mmpose" style="rounded=0;whiteSpace=wrap;html=1;fillColor=#fff2cc;strokeColor=#d6b656;" parent="1" vertex="1">
          <mxGeometry x="1000" y="320" width="120" height="40" as="geometry" />
        </mxCell>
        <mxCell id="fr0xDF6OfTBycA6lLAMu-28" value="pose2sim" style="rounded=0;whiteSpace=wrap;html=1;fillColor=#fff2cc;strokeColor=#d6b656;" parent="1" vertex="1">
          <mxGeometry x="1000" y="400" width="120" height="40" as="geometry" />
        </mxCell>
        <mxCell id="fr0xDF6OfTBycA6lLAMu-29" value="metrabs" style="rounded=0;whiteSpace=wrap;html=1;fillColor=#fff2cc;strokeColor=#d6b656;" parent="1" vertex="1">
          <mxGeometry x="1000" y="480" width="120" height="40" as="geometry" />
        </mxCell>
        <mxCell id="fr0xDF6OfTBycA6lLAMu-33" value="P07_cam2" style="rounded=0;whiteSpace=wrap;html=1;fillColor=#fff2cc;strokeColor=#d6b656;" parent="1" vertex="1">
          <mxGeometry x="800" y="320" width="120" height="40" as="geometry" />
        </mxCell>
        <mxCell id="fr0xDF6OfTBycA6lLAMu-34" value="..." style="rounded=0;whiteSpace=wrap;html=1;fillColor=#fff2cc;strokeColor=#d6b656;" parent="1" vertex="1">
          <mxGeometry x="800" y="400" width="120" height="40" as="geometry" />
        </mxCell>
        <mxCell id="fr0xDF6OfTBycA6lLAMu-35" value="P07_cam10" style="rounded=0;whiteSpace=wrap;html=1;fillColor=#fff2cc;strokeColor=#d6b656;" parent="1" vertex="1">
          <mxGeometry x="800" y="480" width="120" height="40" as="geometry" />
        </mxCell>
        <mxCell id="fr0xDF6OfTBycA6lLAMu-39" value="..." style="rounded=0;whiteSpace=wrap;html=1;fillColor=#fff2cc;strokeColor=#d6b656;" parent="1" vertex="1">
          <mxGeometry x="600" y="320" width="120" height="40" as="geometry" />
        </mxCell>
        <mxCell id="fr0xDF6OfTBycA6lLAMu-40" value="P25" style="rounded=0;whiteSpace=wrap;html=1;fillColor=#fff2cc;strokeColor=#d6b656;" parent="1" vertex="1">
          <mxGeometry x="600" y="400" width="120" height="40" as="geometry" />
        </mxCell>
        <mxCell id="fr0xDF6OfTBycA6lLAMu-53" value="" style="edgeStyle=orthogonalEdgeStyle;rounded=0;orthogonalLoop=1;jettySize=auto;html=1;" parent="1" source="fr0xDF6OfTBycA6lLAMu-44" target="fr0xDF6OfTBycA6lLAMu-52" edge="1">
          <mxGeometry relative="1" as="geometry" />
        </mxCell>
        <mxCell id="fr0xDF6OfTBycA6lLAMu-44" value="OMC" style="rounded=0;whiteSpace=wrap;html=1;fillColor=#fff2cc;strokeColor=#d6b656;" parent="1" vertex="1">
          <mxGeometry x="400" y="560" width="120" height="40" as="geometry" />
        </mxCell>
        <mxCell id="dzoGqHYVTmevsI7cQEQ--11" value="" style="edgeStyle=orthogonalEdgeStyle;rounded=0;orthogonalLoop=1;jettySize=auto;html=1;" edge="1" parent="1" source="fr0xDF6OfTBycA6lLAMu-45" target="dzoGqHYVTmevsI7cQEQ--10">
          <mxGeometry relative="1" as="geometry" />
        </mxCell>
        <mxCell id="fr0xDF6OfTBycA6lLAMu-45" value="setting_001" style="rounded=0;whiteSpace=wrap;html=1;fillColor=#fff2cc;strokeColor=#d6b656;" parent="1" vertex="1">
          <mxGeometry x="400" y="880" width="120" height="40" as="geometry" />
        </mxCell>
        <mxCell id="fr0xDF6OfTBycA6lLAMu-46" value="setting_002" style="rounded=0;whiteSpace=wrap;html=1;fillColor=#fff2cc;strokeColor=#d6b656;" parent="1" vertex="1">
          <mxGeometry x="400" y="960" width="120" height="40" as="geometry" />
        </mxCell>
        <mxCell id="fr0xDF6OfTBycA6lLAMu-47" value="..." style="rounded=0;whiteSpace=wrap;html=1;fillColor=#fff2cc;strokeColor=#d6b656;" parent="1" vertex="1">
          <mxGeometry x="400" y="1040" width="120" height="40" as="geometry" />
        </mxCell>
        <mxCell id="fr0xDF6OfTBycA6lLAMu-57" value="" style="edgeStyle=orthogonalEdgeStyle;rounded=0;orthogonalLoop=1;jettySize=auto;html=1;" parent="1" source="fr0xDF6OfTBycA6lLAMu-52" target="fr0xDF6OfTBycA6lLAMu-56" edge="1">
          <mxGeometry relative="1" as="geometry" />
        </mxCell>
        <mxCell id="fr0xDF6OfTBycA6lLAMu-60" style="edgeStyle=orthogonalEdgeStyle;rounded=0;orthogonalLoop=1;jettySize=auto;html=1;entryX=0;entryY=0.5;entryDx=0;entryDy=0;" parent="1" source="fr0xDF6OfTBycA6lLAMu-52" target="fr0xDF6OfTBycA6lLAMu-58" edge="1">
          <mxGeometry relative="1" as="geometry" />
        </mxCell>
        <mxCell id="fr0xDF6OfTBycA6lLAMu-61" style="edgeStyle=orthogonalEdgeStyle;rounded=0;orthogonalLoop=1;jettySize=auto;html=1;entryX=0;entryY=0.5;entryDx=0;entryDy=0;" parent="1" source="fr0xDF6OfTBycA6lLAMu-52" target="fr0xDF6OfTBycA6lLAMu-59" edge="1">
          <mxGeometry relative="1" as="geometry" />
        </mxCell>
        <mxCell id="fr0xDF6OfTBycA6lLAMu-64" style="edgeStyle=orthogonalEdgeStyle;rounded=0;orthogonalLoop=1;jettySize=auto;html=1;entryX=0;entryY=0.5;entryDx=0;entryDy=0;" parent="1" source="fr0xDF6OfTBycA6lLAMu-52" target="fr0xDF6OfTBycA6lLAMu-63" edge="1">
          <mxGeometry relative="1" as="geometry" />
        </mxCell>
        <mxCell id="fr0xDF6OfTBycA6lLAMu-52" value="S15133" style="rounded=0;whiteSpace=wrap;html=1;fillColor=#fff2cc;strokeColor=#d6b656;" parent="1" vertex="1">
          <mxGeometry x="600" y="560" width="120" height="40" as="geometry" />
        </mxCell>
        <mxCell id="fr0xDF6OfTBycA6lLAMu-68" style="edgeStyle=orthogonalEdgeStyle;rounded=0;orthogonalLoop=1;jettySize=auto;html=1;entryX=0;entryY=0.5;entryDx=0;entryDy=0;" parent="1" source="fr0xDF6OfTBycA6lLAMu-56" target="fr0xDF6OfTBycA6lLAMu-65" edge="1">
          <mxGeometry relative="1" as="geometry" />
        </mxCell>
        <mxCell id="fr0xDF6OfTBycA6lLAMu-69" style="edgeStyle=orthogonalEdgeStyle;rounded=0;orthogonalLoop=1;jettySize=auto;html=1;entryX=0;entryY=0.5;entryDx=0;entryDy=0;" parent="1" source="fr0xDF6OfTBycA6lLAMu-56" target="fr0xDF6OfTBycA6lLAMu-66" edge="1">
          <mxGeometry relative="1" as="geometry" />
        </mxCell>
        <mxCell id="fr0xDF6OfTBycA6lLAMu-70" style="edgeStyle=orthogonalEdgeStyle;rounded=0;orthogonalLoop=1;jettySize=auto;html=1;entryX=0;entryY=0.5;entryDx=0;entryDy=0;" parent="1" source="fr0xDF6OfTBycA6lLAMu-56" target="fr0xDF6OfTBycA6lLAMu-67" edge="1">
          <mxGeometry relative="1" as="geometry" />
        </mxCell>
        <mxCell id="fr0xDF6OfTBycA6lLAMu-56" value="S15133_P01" style="rounded=0;whiteSpace=wrap;html=1;fillColor=#fff2cc;strokeColor=#d6b656;" parent="1" vertex="1">
          <mxGeometry x="800" y="560" width="120" height="40" as="geometry" />
        </mxCell>
        <mxCell id="fr0xDF6OfTBycA6lLAMu-58" value="S15133_P02" style="rounded=0;whiteSpace=wrap;html=1;fillColor=#fff2cc;strokeColor=#d6b656;" parent="1" vertex="1">
          <mxGeometry x="800" y="640" width="120" height="40" as="geometry" />
        </mxCell>
        <mxCell id="fr0xDF6OfTBycA6lLAMu-59" value="S15133_P25" style="rounded=0;whiteSpace=wrap;html=1;fillColor=#fff2cc;strokeColor=#d6b656;" parent="1" vertex="1">
          <mxGeometry x="800" y="800" width="120" height="40" as="geometry" />
        </mxCell>
        <mxCell id="fr0xDF6OfTBycA6lLAMu-63" value="..." style="rounded=0;whiteSpace=wrap;html=1;fillColor=#fff2cc;strokeColor=#d6b656;" parent="1" vertex="1">
          <mxGeometry x="800" y="720" width="120" height="40" as="geometry" />
        </mxCell>
        <mxCell id="fr0xDF6OfTBycA6lLAMu-65" value="S15133_P01_T001" style="rounded=0;whiteSpace=wrap;html=1;fillColor=#fff2cc;strokeColor=#d6b656;" parent="1" vertex="1">
          <mxGeometry x="1000" y="560" width="120" height="40" as="geometry" />
        </mxCell>
        <mxCell id="fr0xDF6OfTBycA6lLAMu-66" value="S15133_P01_T002" style="rounded=0;whiteSpace=wrap;html=1;fillColor=#fff2cc;strokeColor=#d6b656;" parent="1" vertex="1">
          <mxGeometry x="1000" y="640" width="120" height="40" as="geometry" />
        </mxCell>
        <mxCell id="fr0xDF6OfTBycA6lLAMu-67" value="..." style="rounded=0;whiteSpace=wrap;html=1;fillColor=#fff2cc;strokeColor=#d6b656;" parent="1" vertex="1">
          <mxGeometry x="1000" y="720" width="120" height="40" as="geometry" />
        </mxCell>
        <mxCell id="fr0xDF6OfTBycA6lLAMu-74" value="" style="edgeStyle=orthogonalEdgeStyle;rounded=0;orthogonalLoop=1;jettySize=auto;html=1;" parent="1" source="fr0xDF6OfTBycA6lLAMu-71" target="fr0xDF6OfTBycA6lLAMu-73" edge="1">
          <mxGeometry relative="1" as="geometry" />
        </mxCell>
        <mxCell id="fr0xDF6OfTBycA6lLAMu-77" style="edgeStyle=orthogonalEdgeStyle;rounded=0;orthogonalLoop=1;jettySize=auto;html=1;entryX=0;entryY=0.5;entryDx=0;entryDy=0;" parent="1" source="fr0xDF6OfTBycA6lLAMu-71" target="fr0xDF6OfTBycA6lLAMu-75" edge="1">
          <mxGeometry relative="1" as="geometry">
            <Array as="points">
              <mxPoint x="600" y="1380" />
              <mxPoint x="600" y="1460" />
            </Array>
          </mxGeometry>
        </mxCell>
        <mxCell id="fr0xDF6OfTBycA6lLAMu-78" style="edgeStyle=orthogonalEdgeStyle;rounded=0;orthogonalLoop=1;jettySize=auto;html=1;entryX=0;entryY=0.5;entryDx=0;entryDy=0;" parent="1" source="fr0xDF6OfTBycA6lLAMu-71" target="fr0xDF6OfTBycA6lLAMu-76" edge="1">
          <mxGeometry relative="1" as="geometry">
            <Array as="points">
              <mxPoint x="600" y="1380" />
              <mxPoint x="600" y="1540" />
            </Array>
          </mxGeometry>
        </mxCell>
        <mxCell id="fr0xDF6OfTBycA6lLAMu-71" value="opensim" style="rounded=0;whiteSpace=wrap;html=1;fillColor=#fff2cc;strokeColor=#d6b656;" parent="1" vertex="1">
          <mxGeometry x="400" y="1360" width="160" height="40" as="geometry" />
        </mxCell>
        <mxCell id="fr0xDF6OfTBycA6lLAMu-73" value="S001_P07_T001_opensim.log" style="rounded=0;whiteSpace=wrap;html=1;fillColor=#d5e8d4;strokeColor=#82b366;" parent="1" vertex="1">
          <mxGeometry x="640" y="1360" width="200" height="40" as="geometry" />
        </mxCell>
        <mxCell id="fr0xDF6OfTBycA6lLAMu-75" value="S001_P07_T002_opensim.log" style="rounded=0;whiteSpace=wrap;html=1;fillColor=#d5e8d4;strokeColor=#82b366;" parent="1" vertex="1">
          <mxGeometry x="640" y="1440" width="200" height="40" as="geometry" />
        </mxCell>
        <mxCell id="fr0xDF6OfTBycA6lLAMu-76" value="..." style="rounded=0;whiteSpace=wrap;html=1;fillColor=#d5e8d4;strokeColor=#82b366;" parent="1" vertex="1">
          <mxGeometry x="640" y="1520" width="200" height="40" as="geometry" />
        </mxCell>
        <mxCell id="fr0xDF6OfTBycA6lLAMu-79" value="calib_errors.csv" style="rounded=0;whiteSpace=wrap;html=1;fillColor=#d5e8d4;strokeColor=#82b366;" parent="1" vertex="1">
          <mxGeometry x="400" y="1440" width="160" height="40" as="geometry" />
        </mxCell>
        <mxCell id="fr0xDF6OfTBycA6lLAMu-80" value="calib_errors_full.csv" style="rounded=0;whiteSpace=wrap;html=1;fillColor=#d5e8d4;strokeColor=#82b366;" parent="1" vertex="1">
          <mxGeometry x="400" y="1520" width="160" height="40" as="geometry" />
        </mxCell>
        <mxCell id="fr0xDF6OfTBycA6lLAMu-81" value="OMC_opensim_log.csv" style="rounded=0;whiteSpace=wrap;html=1;fillColor=#d5e8d4;strokeColor=#82b366;" parent="1" vertex="1">
          <mxGeometry x="400" y="1600" width="160" height="40" as="geometry" />
        </mxCell>
        <mxCell id="fr0xDF6OfTBycA6lLAMu-82" value="validation_errors.csv" style="rounded=0;whiteSpace=wrap;html=1;fillColor=#d5e8d4;strokeColor=#82b366;" parent="1" vertex="1">
          <mxGeometry x="400" y="1680" width="160" height="40" as="geometry" />
        </mxCell>
        <mxCell id="fr0xDF6OfTBycA6lLAMu-83" value="validation_settings.csv" style="rounded=0;whiteSpace=wrap;html=1;fillColor=#d5e8d4;strokeColor=#82b366;" parent="1" vertex="1">
          <mxGeometry x="400" y="1760" width="160" height="40" as="geometry" />
        </mxCell>
        <mxCell id="fr0xDF6OfTBycA6lLAMu-84" value="validation_trials.csv" style="rounded=0;whiteSpace=wrap;html=1;fillColor=#d5e8d4;strokeColor=#82b366;" parent="1" vertex="1">
          <mxGeometry x="400" y="1840" width="160" height="40" as="geometry" />
        </mxCell>
        <mxCell id="dzoGqHYVTmevsI7cQEQ--4" value="setting_001" style="rounded=0;whiteSpace=wrap;html=1;fillColor=#fff2cc;strokeColor=#d6b656;" vertex="1" parent="1">
          <mxGeometry x="400" y="1120" width="120" height="40" as="geometry" />
        </mxCell>
        <mxCell id="dzoGqHYVTmevsI7cQEQ--6" value="setting_002" style="rounded=0;whiteSpace=wrap;html=1;fillColor=#fff2cc;strokeColor=#d6b656;" vertex="1" parent="1">
          <mxGeometry x="400" y="1200" width="120" height="40" as="geometry" />
        </mxCell>
        <mxCell id="dzoGqHYVTmevsI7cQEQ--7" value="..." style="rounded=0;whiteSpace=wrap;html=1;fillColor=#fff2cc;strokeColor=#d6b656;" vertex="1" parent="1">
          <mxGeometry x="400" y="1280" width="120" height="40" as="geometry" />
        </mxCell>
        <mxCell id="dzoGqHYVTmevsI7cQEQ--77" style="edgeStyle=orthogonalEdgeStyle;rounded=0;orthogonalLoop=1;jettySize=auto;html=1;entryX=0;entryY=0.5;entryDx=0;entryDy=0;" edge="1" parent="1" source="dzoGqHYVTmevsI7cQEQ--10" target="dzoGqHYVTmevsI7cQEQ--15">
          <mxGeometry relative="1" as="geometry" />
        </mxCell>
        <mxCell id="dzoGqHYVTmevsI7cQEQ--10" value="P07" style="rounded=0;whiteSpace=wrap;html=1;fillColor=#fff2cc;strokeColor=#d6b656;" vertex="1" parent="1">
          <mxGeometry x="600" y="880" width="120" height="40" as="geometry" />
        </mxCell>
        <mxCell id="dzoGqHYVTmevsI7cQEQ--12" value="P08" style="rounded=0;whiteSpace=wrap;html=1;fillColor=#fff2cc;strokeColor=#d6b656;" vertex="1" parent="1">
          <mxGeometry x="600" y="960" width="120" height="40" as="geometry" />
        </mxCell>
        <mxCell id="dzoGqHYVTmevsI7cQEQ--13" value="..." style="rounded=0;whiteSpace=wrap;html=1;fillColor=#fff2cc;strokeColor=#d6b656;" vertex="1" parent="1">
          <mxGeometry x="600" y="1040" width="120" height="40" as="geometry" />
        </mxCell>
        <mxCell id="dzoGqHYVTmevsI7cQEQ--78" style="edgeStyle=orthogonalEdgeStyle;rounded=0;orthogonalLoop=1;jettySize=auto;html=1;entryX=0;entryY=0.5;entryDx=0;entryDy=0;" edge="1" parent="1" source="dzoGqHYVTmevsI7cQEQ--15" target="dzoGqHYVTmevsI7cQEQ--16">
          <mxGeometry relative="1" as="geometry" />
        </mxCell>
        <mxCell id="dzoGqHYVTmevsI7cQEQ--79" style="edgeStyle=orthogonalEdgeStyle;rounded=0;orthogonalLoop=1;jettySize=auto;html=1;entryX=0;entryY=0.5;entryDx=0;entryDy=0;" edge="1" parent="1" source="dzoGqHYVTmevsI7cQEQ--15" target="dzoGqHYVTmevsI7cQEQ--17">
          <mxGeometry relative="1" as="geometry" />
        </mxCell>
        <mxCell id="dzoGqHYVTmevsI7cQEQ--80" style="edgeStyle=orthogonalEdgeStyle;rounded=0;orthogonalLoop=1;jettySize=auto;html=1;entryX=0;entryY=0.5;entryDx=0;entryDy=0;" edge="1" parent="1" source="dzoGqHYVTmevsI7cQEQ--15" target="dzoGqHYVTmevsI7cQEQ--18">
          <mxGeometry relative="1" as="geometry" />
        </mxCell>
        <mxCell id="dzoGqHYVTmevsI7cQEQ--15" value="S001" style="rounded=0;whiteSpace=wrap;html=1;fillColor=#fff2cc;strokeColor=#d6b656;" vertex="1" parent="1">
          <mxGeometry x="800" y="880" width="120" height="40" as="geometry" />
        </mxCell>
        <mxCell id="dzoGqHYVTmevsI7cQEQ--23" style="edgeStyle=orthogonalEdgeStyle;rounded=0;orthogonalLoop=1;jettySize=auto;html=1;entryX=0;entryY=0.5;entryDx=0;entryDy=0;" edge="1" parent="1" source="dzoGqHYVTmevsI7cQEQ--16" target="dzoGqHYVTmevsI7cQEQ--19">
          <mxGeometry relative="1" as="geometry" />
        </mxCell>
        <mxCell id="dzoGqHYVTmevsI7cQEQ--16" value="S001_Calibration" style="rounded=0;whiteSpace=wrap;html=1;fillColor=#fff2cc;strokeColor=#d6b656;" vertex="1" parent="1">
          <mxGeometry x="1000" y="880" width="120" height="40" as="geometry" />
        </mxCell>
        <mxCell id="dzoGqHYVTmevsI7cQEQ--24" style="edgeStyle=orthogonalEdgeStyle;rounded=0;orthogonalLoop=1;jettySize=auto;html=1;entryX=0;entryY=0.5;entryDx=0;entryDy=0;" edge="1" parent="1" source="dzoGqHYVTmevsI7cQEQ--17" target="dzoGqHYVTmevsI7cQEQ--20">
          <mxGeometry relative="1" as="geometry" />
        </mxCell>
        <mxCell id="dzoGqHYVTmevsI7cQEQ--25" style="edgeStyle=orthogonalEdgeStyle;rounded=0;orthogonalLoop=1;jettySize=auto;html=1;entryX=0;entryY=0.5;entryDx=0;entryDy=0;" edge="1" parent="1" source="dzoGqHYVTmevsI7cQEQ--17" target="dzoGqHYVTmevsI7cQEQ--21">
          <mxGeometry relative="1" as="geometry" />
        </mxCell>
        <mxCell id="dzoGqHYVTmevsI7cQEQ--26" style="edgeStyle=orthogonalEdgeStyle;rounded=0;orthogonalLoop=1;jettySize=auto;html=1;entryX=0;entryY=0.5;entryDx=0;entryDy=0;" edge="1" parent="1" source="dzoGqHYVTmevsI7cQEQ--17" target="dzoGqHYVTmevsI7cQEQ--22">
          <mxGeometry relative="1" as="geometry" />
        </mxCell>
        <mxCell id="dzoGqHYVTmevsI7cQEQ--17" value="S001_P07" style="rounded=0;whiteSpace=wrap;html=1;fillColor=#fff2cc;strokeColor=#d6b656;" vertex="1" parent="1">
          <mxGeometry x="1000" y="960" width="120" height="40" as="geometry" />
        </mxCell>
        <mxCell id="dzoGqHYVTmevsI7cQEQ--18" value="logs.txt" style="rounded=0;whiteSpace=wrap;html=1;fillColor=#d5e8d4;strokeColor=#82b366;" vertex="1" parent="1">
          <mxGeometry x="1000" y="1040" width="120" height="40" as="geometry" />
        </mxCell>
        <mxCell id="dzoGqHYVTmevsI7cQEQ--19" value="Calib_S001_P07.toml" style="rounded=0;whiteSpace=wrap;html=1;fillColor=#d5e8d4;strokeColor=#82b366;" vertex="1" parent="1">
          <mxGeometry x="1200" y="880" width="160" height="40" as="geometry" />
        </mxCell>
        <mxCell id="dzoGqHYVTmevsI7cQEQ--39" style="edgeStyle=orthogonalEdgeStyle;rounded=0;orthogonalLoop=1;jettySize=auto;html=1;entryX=0;entryY=0.5;entryDx=0;entryDy=0;" edge="1" parent="1" source="dzoGqHYVTmevsI7cQEQ--20" target="dzoGqHYVTmevsI7cQEQ--27">
          <mxGeometry relative="1" as="geometry" />
        </mxCell>
        <mxCell id="dzoGqHYVTmevsI7cQEQ--40" style="edgeStyle=orthogonalEdgeStyle;rounded=0;orthogonalLoop=1;jettySize=auto;html=1;entryX=0;entryY=0.5;entryDx=0;entryDy=0;" edge="1" parent="1" source="dzoGqHYVTmevsI7cQEQ--20" target="dzoGqHYVTmevsI7cQEQ--28">
          <mxGeometry relative="1" as="geometry" />
        </mxCell>
        <mxCell id="dzoGqHYVTmevsI7cQEQ--41" style="edgeStyle=orthogonalEdgeStyle;rounded=0;orthogonalLoop=1;jettySize=auto;html=1;entryX=0;entryY=0.5;entryDx=0;entryDy=0;" edge="1" parent="1" source="dzoGqHYVTmevsI7cQEQ--20" target="dzoGqHYVTmevsI7cQEQ--29">
          <mxGeometry relative="1" as="geometry" />
        </mxCell>
        <mxCell id="dzoGqHYVTmevsI7cQEQ--42" style="edgeStyle=orthogonalEdgeStyle;rounded=0;orthogonalLoop=1;jettySize=auto;html=1;entryX=0;entryY=0.5;entryDx=0;entryDy=0;" edge="1" parent="1" source="dzoGqHYVTmevsI7cQEQ--20" target="dzoGqHYVTmevsI7cQEQ--30">
          <mxGeometry relative="1" as="geometry" />
        </mxCell>
        <mxCell id="dzoGqHYVTmevsI7cQEQ--43" style="edgeStyle=orthogonalEdgeStyle;rounded=0;orthogonalLoop=1;jettySize=auto;html=1;entryX=0;entryY=0.5;entryDx=0;entryDy=0;" edge="1" parent="1" source="dzoGqHYVTmevsI7cQEQ--20" target="dzoGqHYVTmevsI7cQEQ--31">
          <mxGeometry relative="1" as="geometry" />
        </mxCell>
        <mxCell id="dzoGqHYVTmevsI7cQEQ--44" style="edgeStyle=orthogonalEdgeStyle;rounded=0;orthogonalLoop=1;jettySize=auto;html=1;entryX=0;entryY=0.5;entryDx=0;entryDy=0;" edge="1" parent="1" source="dzoGqHYVTmevsI7cQEQ--20" target="dzoGqHYVTmevsI7cQEQ--32">
          <mxGeometry relative="1" as="geometry" />
        </mxCell>
        <mxCell id="dzoGqHYVTmevsI7cQEQ--45" style="edgeStyle=orthogonalEdgeStyle;rounded=0;orthogonalLoop=1;jettySize=auto;html=1;entryX=0;entryY=0.5;entryDx=0;entryDy=0;" edge="1" parent="1" source="dzoGqHYVTmevsI7cQEQ--20" target="dzoGqHYVTmevsI7cQEQ--33">
          <mxGeometry relative="1" as="geometry" />
        </mxCell>
        <mxCell id="dzoGqHYVTmevsI7cQEQ--46" style="edgeStyle=orthogonalEdgeStyle;rounded=0;orthogonalLoop=1;jettySize=auto;html=1;entryX=0;entryY=0.5;entryDx=0;entryDy=0;" edge="1" parent="1" source="dzoGqHYVTmevsI7cQEQ--20" target="dzoGqHYVTmevsI7cQEQ--34">
          <mxGeometry relative="1" as="geometry" />
        </mxCell>
        <mxCell id="dzoGqHYVTmevsI7cQEQ--47" style="edgeStyle=orthogonalEdgeStyle;rounded=0;orthogonalLoop=1;jettySize=auto;html=1;entryX=0;entryY=0.5;entryDx=0;entryDy=0;" edge="1" parent="1" source="dzoGqHYVTmevsI7cQEQ--20" target="dzoGqHYVTmevsI7cQEQ--35">
          <mxGeometry relative="1" as="geometry" />
        </mxCell>
        <mxCell id="dzoGqHYVTmevsI7cQEQ--48" style="edgeStyle=orthogonalEdgeStyle;rounded=0;orthogonalLoop=1;jettySize=auto;html=1;entryX=0;entryY=0.5;entryDx=0;entryDy=0;" edge="1" parent="1" source="dzoGqHYVTmevsI7cQEQ--20" target="dzoGqHYVTmevsI7cQEQ--36">
          <mxGeometry relative="1" as="geometry" />
        </mxCell>
        <mxCell id="dzoGqHYVTmevsI7cQEQ--49" style="edgeStyle=orthogonalEdgeStyle;rounded=0;orthogonalLoop=1;jettySize=auto;html=1;entryX=0;entryY=0.5;entryDx=0;entryDy=0;" edge="1" parent="1" source="dzoGqHYVTmevsI7cQEQ--20" target="dzoGqHYVTmevsI7cQEQ--37">
          <mxGeometry relative="1" as="geometry" />
        </mxCell>
        <mxCell id="dzoGqHYVTmevsI7cQEQ--50" style="edgeStyle=orthogonalEdgeStyle;rounded=0;orthogonalLoop=1;jettySize=auto;html=1;entryX=0;entryY=0.5;entryDx=0;entryDy=0;" edge="1" parent="1" source="dzoGqHYVTmevsI7cQEQ--20" target="dzoGqHYVTmevsI7cQEQ--38">
          <mxGeometry relative="1" as="geometry" />
        </mxCell>
        <mxCell id="dzoGqHYVTmevsI7cQEQ--20" value="S001_P07_T001" style="rounded=0;whiteSpace=wrap;html=1;fillColor=#fff2cc;strokeColor=#d6b656;" vertex="1" parent="1">
          <mxGeometry x="1200" y="960" width="120" height="40" as="geometry" />
        </mxCell>
        <mxCell id="dzoGqHYVTmevsI7cQEQ--21" value="S001_P07_T002" style="rounded=0;whiteSpace=wrap;html=1;fillColor=#fff2cc;strokeColor=#d6b656;" vertex="1" parent="1">
          <mxGeometry x="1200" y="1040" width="120" height="40" as="geometry" />
        </mxCell>
        <mxCell id="dzoGqHYVTmevsI7cQEQ--22" value="..." style="rounded=0;whiteSpace=wrap;html=1;fillColor=#fff2cc;strokeColor=#d6b656;" vertex="1" parent="1">
          <mxGeometry x="1200" y="1120" width="120" height="40" as="geometry" />
        </mxCell>
        <mxCell id="dzoGqHYVTmevsI7cQEQ--27" value="Geometry" style="rounded=0;whiteSpace=wrap;html=1;fillColor=#fff2cc;strokeColor=#d6b656;" vertex="1" parent="1">
          <mxGeometry x="1400" y="960" width="120" height="40" as="geometry" />
        </mxCell>
        <mxCell id="dzoGqHYVTmevsI7cQEQ--72" style="edgeStyle=orthogonalEdgeStyle;rounded=0;orthogonalLoop=1;jettySize=auto;html=1;entryX=0;entryY=0.5;entryDx=0;entryDy=0;" edge="1" parent="1" source="dzoGqHYVTmevsI7cQEQ--28" target="dzoGqHYVTmevsI7cQEQ--67">
          <mxGeometry relative="1" as="geometry" />
        </mxCell>
        <mxCell id="dzoGqHYVTmevsI7cQEQ--73" style="edgeStyle=orthogonalEdgeStyle;rounded=0;orthogonalLoop=1;jettySize=auto;html=1;entryX=0;entryY=0.5;entryDx=0;entryDy=0;" edge="1" parent="1" source="dzoGqHYVTmevsI7cQEQ--28" target="dzoGqHYVTmevsI7cQEQ--68">
          <mxGeometry relative="1" as="geometry" />
        </mxCell>
        <mxCell id="dzoGqHYVTmevsI7cQEQ--74" style="edgeStyle=orthogonalEdgeStyle;rounded=0;orthogonalLoop=1;jettySize=auto;html=1;entryX=0;entryY=0.5;entryDx=0;entryDy=0;" edge="1" parent="1" source="dzoGqHYVTmevsI7cQEQ--28" target="dzoGqHYVTmevsI7cQEQ--69">
          <mxGeometry relative="1" as="geometry" />
        </mxCell>
        <mxCell id="dzoGqHYVTmevsI7cQEQ--75" style="edgeStyle=orthogonalEdgeStyle;rounded=0;orthogonalLoop=1;jettySize=auto;html=1;entryX=0;entryY=0.5;entryDx=0;entryDy=0;" edge="1" parent="1" source="dzoGqHYVTmevsI7cQEQ--28" target="dzoGqHYVTmevsI7cQEQ--70">
          <mxGeometry relative="1" as="geometry" />
        </mxCell>
        <mxCell id="dzoGqHYVTmevsI7cQEQ--76" style="edgeStyle=orthogonalEdgeStyle;rounded=0;orthogonalLoop=1;jettySize=auto;html=1;entryX=0;entryY=0.5;entryDx=0;entryDy=0;" edge="1" parent="1" source="dzoGqHYVTmevsI7cQEQ--28" target="dzoGqHYVTmevsI7cQEQ--71">
          <mxGeometry relative="1" as="geometry" />
        </mxCell>
        <mxCell id="dzoGqHYVTmevsI7cQEQ--28" value="movement_analysis" style="rounded=0;whiteSpace=wrap;html=1;fillColor=#fff2cc;strokeColor=#d6b656;" vertex="1" parent="1">
          <mxGeometry x="1400" y="1040" width="120" height="40" as="geometry" />
        </mxCell>
        <mxCell id="dzoGqHYVTmevsI7cQEQ--52" value="" style="edgeStyle=orthogonalEdgeStyle;rounded=0;orthogonalLoop=1;jettySize=auto;html=1;" edge="1" parent="1" source="dzoGqHYVTmevsI7cQEQ--29" target="dzoGqHYVTmevsI7cQEQ--51">
          <mxGeometry relative="1" as="geometry" />
        </mxCell>
        <mxCell id="dzoGqHYVTmevsI7cQEQ--55" style="edgeStyle=orthogonalEdgeStyle;rounded=0;orthogonalLoop=1;jettySize=auto;html=1;entryX=0;entryY=0.5;entryDx=0;entryDy=0;" edge="1" parent="1" source="dzoGqHYVTmevsI7cQEQ--29" target="dzoGqHYVTmevsI7cQEQ--54">
          <mxGeometry relative="1" as="geometry">
            <Array as="points">
              <mxPoint x="1560" y="1460" />
              <mxPoint x="1560" y="1540" />
            </Array>
          </mxGeometry>
        </mxCell>
        <mxCell id="dzoGqHYVTmevsI7cQEQ--29" value="pose" style="rounded=0;whiteSpace=wrap;html=1;fillColor=#fff2cc;strokeColor=#d6b656;" vertex="1" parent="1">
          <mxGeometry x="1400" y="1440" width="120" height="40" as="geometry" />
        </mxCell>
        <mxCell id="dzoGqHYVTmevsI7cQEQ--61" value="" style="edgeStyle=orthogonalEdgeStyle;rounded=0;orthogonalLoop=1;jettySize=auto;html=1;" edge="1" parent="1" source="dzoGqHYVTmevsI7cQEQ--30" target="dzoGqHYVTmevsI7cQEQ--60">
          <mxGeometry relative="1" as="geometry" />
        </mxCell>
        <mxCell id="dzoGqHYVTmevsI7cQEQ--63" style="edgeStyle=orthogonalEdgeStyle;rounded=0;orthogonalLoop=1;jettySize=auto;html=1;entryX=0;entryY=0.5;entryDx=0;entryDy=0;" edge="1" parent="1" source="dzoGqHYVTmevsI7cQEQ--30" target="dzoGqHYVTmevsI7cQEQ--62">
          <mxGeometry relative="1" as="geometry" />
        </mxCell>
        <mxCell id="dzoGqHYVTmevsI7cQEQ--66" style="edgeStyle=orthogonalEdgeStyle;rounded=0;orthogonalLoop=1;jettySize=auto;html=1;entryX=0;entryY=0.5;entryDx=0;entryDy=0;" edge="1" parent="1" source="dzoGqHYVTmevsI7cQEQ--30" target="dzoGqHYVTmevsI7cQEQ--65">
          <mxGeometry relative="1" as="geometry" />
        </mxCell>
        <mxCell id="dzoGqHYVTmevsI7cQEQ--30" value="pose-3d" style="rounded=0;whiteSpace=wrap;html=1;fillColor=#fff2cc;strokeColor=#d6b656;" vertex="1" parent="1">
          <mxGeometry x="1400" y="1600" width="120" height="40" as="geometry" />
        </mxCell>
        <mxCell id="dzoGqHYVTmevsI7cQEQ--31" value="pose_associated" style="rounded=0;whiteSpace=wrap;html=1;fillColor=#fff2cc;strokeColor=#d6b656;" vertex="1" parent="1">
          <mxGeometry x="1400" y="1680" width="120" height="40" as="geometry" />
        </mxCell>
        <mxCell id="dzoGqHYVTmevsI7cQEQ--32" value="pose-sync" style="rounded=0;whiteSpace=wrap;html=1;fillColor=#fff2cc;strokeColor=#d6b656;" vertex="1" parent="1">
          <mxGeometry x="1400" y="1760" width="120" height="40" as="geometry" />
        </mxCell>
        <mxCell id="dzoGqHYVTmevsI7cQEQ--33" value="videos" style="rounded=0;whiteSpace=wrap;html=1;fillColor=#fff2cc;strokeColor=#d6b656;" vertex="1" parent="1">
          <mxGeometry x="1400" y="1840" width="120" height="40" as="geometry" />
        </mxCell>
        <mxCell id="dzoGqHYVTmevsI7cQEQ--34" value="AT_Setup.xml" style="rounded=0;whiteSpace=wrap;html=1;fillColor=#d5e8d4;strokeColor=#82b366;" vertex="1" parent="1">
          <mxGeometry x="1400" y="1920" width="280" height="40" as="geometry" />
        </mxCell>
        <mxCell id="dzoGqHYVTmevsI7cQEQ--35" value="IK_Setup_iDirnk_[PoseModel].xml" style="rounded=0;whiteSpace=wrap;html=1;fillColor=#d5e8d4;strokeColor=#82b366;" vertex="1" parent="1">
          <mxGeometry x="1400" y="2000" width="280" height="40" as="geometry" />
        </mxCell>
        <mxCell id="dzoGqHYVTmevsI7cQEQ--36" value="S001_P07_T001_Config.toml" style="rounded=0;whiteSpace=wrap;html=1;fillColor=#d5e8d4;strokeColor=#82b366;" vertex="1" parent="1">
          <mxGeometry x="1400" y="2080" width="280" height="40" as="geometry" />
        </mxCell>
        <mxCell id="dzoGqHYVTmevsI7cQEQ--37" value="Scaled_Coco17_UpperBody.osim" style="rounded=0;whiteSpace=wrap;html=1;fillColor=#d5e8d4;strokeColor=#82b366;" vertex="1" parent="1">
          <mxGeometry x="1400" y="2160" width="280" height="40" as="geometry" />
        </mxCell>
        <mxCell id="dzoGqHYVTmevsI7cQEQ--38" value="Scaling_Setup_iDrink_Coco17_UpperBody.xml" style="rounded=0;whiteSpace=wrap;html=1;fillColor=#d5e8d4;strokeColor=#82b366;" vertex="1" parent="1">
          <mxGeometry x="1400" y="2240" width="280" height="40" as="geometry" />
        </mxCell>
        <mxCell id="dzoGqHYVTmevsI7cQEQ--57" value="" style="edgeStyle=orthogonalEdgeStyle;rounded=0;orthogonalLoop=1;jettySize=auto;html=1;" edge="1" parent="1" source="dzoGqHYVTmevsI7cQEQ--51" target="dzoGqHYVTmevsI7cQEQ--56">
          <mxGeometry relative="1" as="geometry" />
        </mxCell>
        <mxCell id="dzoGqHYVTmevsI7cQEQ--59" style="edgeStyle=orthogonalEdgeStyle;rounded=0;orthogonalLoop=1;jettySize=auto;html=1;entryX=0;entryY=0.5;entryDx=0;entryDy=0;" edge="1" parent="1" source="dzoGqHYVTmevsI7cQEQ--51" target="dzoGqHYVTmevsI7cQEQ--58">
          <mxGeometry relative="1" as="geometry" />
        </mxCell>
        <mxCell id="dzoGqHYVTmevsI7cQEQ--51" value="cam1_[....]_json" style="rounded=0;whiteSpace=wrap;html=1;fillColor=#fff2cc;strokeColor=#d6b656;" vertex="1" parent="1">
          <mxGeometry x="1600" y="1440" width="120" height="40" as="geometry" />
        </mxCell>
        <mxCell id="dzoGqHYVTmevsI7cQEQ--54" value="[...]_json" style="rounded=0;whiteSpace=wrap;html=1;fillColor=#fff2cc;strokeColor=#d6b656;" vertex="1" parent="1">
          <mxGeometry x="1600" y="1520" width="120" height="40" as="geometry" />
        </mxCell>
        <mxCell id="dzoGqHYVTmevsI7cQEQ--56" value="cam1_[...].json" style="rounded=0;whiteSpace=wrap;html=1;fillColor=#d5e8d4;strokeColor=#82b366;" vertex="1" parent="1">
          <mxGeometry x="1800" y="1440" width="120" height="40" as="geometry" />
        </mxCell>
        <mxCell id="dzoGqHYVTmevsI7cQEQ--58" value="[...].json" style="rounded=0;whiteSpace=wrap;html=1;fillColor=#d5e8d4;strokeColor=#82b366;" vertex="1" parent="1">
          <mxGeometry x="1800" y="1520" width="120" height="40" as="geometry" />
        </mxCell>
        <mxCell id="dzoGqHYVTmevsI7cQEQ--60" value="S001_P07_T001_0-394.trc" style="rounded=0;whiteSpace=wrap;html=1;fillColor=#d5e8d4;strokeColor=#82b366;" vertex="1" parent="1">
          <mxGeometry x="1600" y="1600" width="280" height="40" as="geometry" />
        </mxCell>
        <mxCell id="dzoGqHYVTmevsI7cQEQ--62" value="S001_P07_T001_0-394_filt_butterworth.trc" style="rounded=0;whiteSpace=wrap;html=1;fillColor=#d5e8d4;strokeColor=#82b366;" vertex="1" parent="1">
          <mxGeometry x="1600" y="1680" width="280" height="40" as="geometry" />
        </mxCell>
        <mxCell id="dzoGqHYVTmevsI7cQEQ--65" value="S001_P07_T001_0-394_filt_butterworth.mov" style="rounded=0;whiteSpace=wrap;html=1;fillColor=#d5e8d4;strokeColor=#82b366;" vertex="1" parent="1">
          <mxGeometry x="1600" y="1760" width="280" height="40" as="geometry" />
        </mxCell>
        <mxCell id="dzoGqHYVTmevsI7cQEQ--67" value="ik_tool" style="rounded=0;whiteSpace=wrap;html=1;fillColor=#fff2cc;strokeColor=#d6b656;" vertex="1" parent="1">
          <mxGeometry x="1600" y="1040" width="160" height="40" as="geometry" />
        </mxCell>
        <mxCell id="dzoGqHYVTmevsI7cQEQ--68" value="kin_opensim_analyzetool" style="rounded=0;whiteSpace=wrap;html=1;fillColor=#fff2cc;strokeColor=#d6b656;" vertex="1" parent="1">
          <mxGeometry x="1600" y="1120" width="160" height="40" as="geometry" />
        </mxCell>
        <mxCell id="dzoGqHYVTmevsI7cQEQ--69" value="kin_p2s" style="rounded=0;whiteSpace=wrap;html=1;fillColor=#fff2cc;strokeColor=#d6b656;" vertex="1" parent="1">
          <mxGeometry x="1600" y="1200" width="160" height="40" as="geometry" />
        </mxCell>
        <mxCell id="dzoGqHYVTmevsI7cQEQ--70" value="kin_trc" style="rounded=0;whiteSpace=wrap;html=1;fillColor=#fff2cc;strokeColor=#d6b656;" vertex="1" parent="1">
          <mxGeometry x="1600" y="1280" width="160" height="40" as="geometry" />
        </mxCell>
        <mxCell id="dzoGqHYVTmevsI7cQEQ--71" value="murphy_measures" style="rounded=0;whiteSpace=wrap;html=1;fillColor=#fff2cc;strokeColor=#d6b656;" vertex="1" parent="1">
          <mxGeometry x="1600" y="1360" width="160" height="40" as="geometry" />
        </mxCell>
      </root>
    </mxGraphModel>
  </diagram>
  <diagram id="TTGZ_nDO4XWuEmR9a2cv" name="root_MMC">
    <mxGraphModel dx="1606" dy="1386" grid="1" gridSize="10" guides="1" tooltips="1" connect="1" arrows="1" fold="1" page="1" pageScale="1" pageWidth="827" pageHeight="1169" math="0" shadow="0">
      <root>
        <mxCell id="0" />
        <mxCell id="1" parent="0" />
        <mxCell id="q1mF-Ri-6yKlBVAdqPXM-1" value="Folder" style="rounded=0;whiteSpace=wrap;html=1;fillColor=#fff2cc;strokeColor=#d6b656;" vertex="1" parent="1">
          <mxGeometry width="120" height="40" as="geometry" />
        </mxCell>
        <mxCell id="q1mF-Ri-6yKlBVAdqPXM-2" value="File" style="rounded=0;whiteSpace=wrap;html=1;fillColor=#d5e8d4;strokeColor=#82b366;" vertex="1" parent="1">
          <mxGeometry x="160" width="120" height="40" as="geometry" />
        </mxCell>
        <mxCell id="1QVs_rybuDXx98RH7qr--3" value="" style="edgeStyle=orthogonalEdgeStyle;rounded=0;orthogonalLoop=1;jettySize=auto;html=1;" edge="1" parent="1" source="1QVs_rybuDXx98RH7qr--1" target="1QVs_rybuDXx98RH7qr--2">
          <mxGeometry relative="1" as="geometry" />
        </mxCell>
        <mxCell id="1QVs_rybuDXx98RH7qr--1" value="data_newStruc" style="rounded=0;whiteSpace=wrap;html=1;fillColor=#fff2cc;strokeColor=#d6b656;" vertex="1" parent="1">
          <mxGeometry y="120" width="120" height="40" as="geometry" />
        </mxCell>
        <mxCell id="1QVs_rybuDXx98RH7qr--15" style="edgeStyle=orthogonalEdgeStyle;rounded=0;orthogonalLoop=1;jettySize=auto;html=1;entryX=0;entryY=0.5;entryDx=0;entryDy=0;" edge="1" parent="1" source="1QVs_rybuDXx98RH7qr--2" target="1QVs_rybuDXx98RH7qr--8">
          <mxGeometry relative="1" as="geometry" />
        </mxCell>
        <mxCell id="1QVs_rybuDXx98RH7qr--2" value="P01" style="rounded=0;whiteSpace=wrap;html=1;fillColor=#fff2cc;strokeColor=#d6b656;" vertex="1" parent="1">
          <mxGeometry x="200" y="120" width="120" height="40" as="geometry" />
        </mxCell>
        <mxCell id="1QVs_rybuDXx98RH7qr--4" value="P02" style="rounded=0;whiteSpace=wrap;html=1;fillColor=#fff2cc;strokeColor=#d6b656;" vertex="1" parent="1">
          <mxGeometry x="200" y="200" width="120" height="40" as="geometry" />
        </mxCell>
        <mxCell id="1QVs_rybuDXx98RH7qr--5" value=".." style="rounded=0;whiteSpace=wrap;html=1;fillColor=#fff2cc;strokeColor=#d6b656;" vertex="1" parent="1">
          <mxGeometry x="200" y="280" width="120" height="40" as="geometry" />
        </mxCell>
        <mxCell id="1QVs_rybuDXx98RH7qr--6" value="P37" style="rounded=0;whiteSpace=wrap;html=1;fillColor=#fff2cc;strokeColor=#d6b656;" vertex="1" parent="1">
          <mxGeometry x="200" y="360" width="120" height="40" as="geometry" />
        </mxCell>
        <mxCell id="1QVs_rybuDXx98RH7qr--19" style="edgeStyle=orthogonalEdgeStyle;rounded=0;orthogonalLoop=1;jettySize=auto;html=1;entryX=0;entryY=0.5;entryDx=0;entryDy=0;" edge="1" parent="1" source="1QVs_rybuDXx98RH7qr--8" target="1QVs_rybuDXx98RH7qr--12">
          <mxGeometry relative="1" as="geometry" />
        </mxCell>
        <mxCell id="1QVs_rybuDXx98RH7qr--8" value="01_Measurement" style="rounded=0;whiteSpace=wrap;html=1;fillColor=#fff2cc;strokeColor=#d6b656;" vertex="1" parent="1">
          <mxGeometry x="400" y="120" width="120" height="40" as="geometry" />
        </mxCell>
        <mxCell id="1QVs_rybuDXx98RH7qr--9" value="01_IMU" style="rounded=0;whiteSpace=wrap;html=1;fillColor=#fff2cc;strokeColor=#d6b656;" vertex="1" parent="1">
          <mxGeometry x="600" y="120" width="120" height="40" as="geometry" />
        </mxCell>
        <mxCell id="1QVs_rybuDXx98RH7qr--10" value="02_Kinect" style="rounded=0;whiteSpace=wrap;html=1;fillColor=#fff2cc;strokeColor=#d6b656;" vertex="1" parent="1">
          <mxGeometry x="600" y="200" width="120" height="40" as="geometry" />
        </mxCell>
        <mxCell id="1QVs_rybuDXx98RH7qr--11" value="03_Mocap" style="rounded=0;whiteSpace=wrap;html=1;fillColor=#fff2cc;strokeColor=#d6b656;" vertex="1" parent="1">
          <mxGeometry x="600" y="280" width="120" height="40" as="geometry" />
        </mxCell>
        <mxCell id="1QVs_rybuDXx98RH7qr--28" style="edgeStyle=orthogonalEdgeStyle;rounded=0;orthogonalLoop=1;jettySize=auto;html=1;entryX=0;entryY=0.5;entryDx=0;entryDy=0;" edge="1" parent="1" source="1QVs_rybuDXx98RH7qr--12" target="1QVs_rybuDXx98RH7qr--24">
          <mxGeometry relative="1" as="geometry" />
        </mxCell>
        <mxCell id="1QVs_rybuDXx98RH7qr--30" style="edgeStyle=orthogonalEdgeStyle;rounded=0;orthogonalLoop=1;jettySize=auto;html=1;entryX=0;entryY=0.5;entryDx=0;entryDy=0;" edge="1" parent="1" source="1QVs_rybuDXx98RH7qr--12" target="1QVs_rybuDXx98RH7qr--26">
          <mxGeometry relative="1" as="geometry" />
        </mxCell>
        <mxCell id="1QVs_rybuDXx98RH7qr--12" value="04_Video" style="rounded=0;whiteSpace=wrap;html=1;fillColor=#fff2cc;strokeColor=#d6b656;" vertex="1" parent="1">
          <mxGeometry x="600" y="360" width="120" height="40" as="geometry" />
        </mxCell>
        <mxCell id="1QVs_rybuDXx98RH7qr--13" value="05_Open_Pose" style="rounded=0;whiteSpace=wrap;html=1;fillColor=#fff2cc;strokeColor=#d6b656;" vertex="1" parent="1">
          <mxGeometry x="600" y="440" width="120" height="40" as="geometry" />
        </mxCell>
        <mxCell id="1QVs_rybuDXx98RH7qr--21" value="01_Uncut" style="rounded=0;whiteSpace=wrap;html=1;fillColor=#fff2cc;strokeColor=#d6b656;" vertex="1" parent="1">
          <mxGeometry x="800" y="120" width="120" height="40" as="geometry" />
        </mxCell>
        <mxCell id="1QVs_rybuDXx98RH7qr--23" value="02_Led_Video" style="rounded=0;whiteSpace=wrap;html=1;fillColor=#fff2cc;strokeColor=#d6b656;" vertex="1" parent="1">
          <mxGeometry x="800" y="200" width="120" height="40" as="geometry" />
        </mxCell>
        <mxCell id="1QVs_rybuDXx98RH7qr--32" value="" style="edgeStyle=orthogonalEdgeStyle;rounded=0;orthogonalLoop=1;jettySize=auto;html=1;" edge="1" parent="1" source="1QVs_rybuDXx98RH7qr--24" target="1QVs_rybuDXx98RH7qr--31">
          <mxGeometry relative="1" as="geometry" />
        </mxCell>
        <mxCell id="1QVs_rybuDXx98RH7qr--24" value="03_Cut" style="rounded=0;whiteSpace=wrap;html=1;fillColor=#fff2cc;strokeColor=#d6b656;" vertex="1" parent="1">
          <mxGeometry x="800" y="280" width="120" height="40" as="geometry" />
        </mxCell>
        <mxCell id="1QVs_rybuDXx98RH7qr--25" value="04_Cut_Ordered" style="rounded=0;whiteSpace=wrap;html=1;fillColor=#fff2cc;strokeColor=#d6b656;" vertex="1" parent="1">
          <mxGeometry x="800" y="360" width="120" height="40" as="geometry" />
        </mxCell>
        <mxCell id="FfElPhH7zBQ0t7Rfh040-7" style="edgeStyle=orthogonalEdgeStyle;rounded=0;orthogonalLoop=1;jettySize=auto;html=1;entryX=0;entryY=0.5;entryDx=0;entryDy=0;" edge="1" parent="1" source="1QVs_rybuDXx98RH7qr--26" target="FfElPhH7zBQ0t7Rfh040-1">
          <mxGeometry relative="1" as="geometry" />
        </mxCell>
        <mxCell id="FfElPhH7zBQ0t7Rfh040-8" style="edgeStyle=orthogonalEdgeStyle;rounded=0;orthogonalLoop=1;jettySize=auto;html=1;entryX=0;entryY=0.5;entryDx=0;entryDy=0;" edge="1" parent="1" source="1QVs_rybuDXx98RH7qr--26" target="FfElPhH7zBQ0t7Rfh040-2">
          <mxGeometry relative="1" as="geometry" />
        </mxCell>
        <mxCell id="FfElPhH7zBQ0t7Rfh040-9" style="edgeStyle=orthogonalEdgeStyle;rounded=0;orthogonalLoop=1;jettySize=auto;html=1;entryX=0;entryY=0.5;entryDx=0;entryDy=0;" edge="1" parent="1" source="1QVs_rybuDXx98RH7qr--26" target="FfElPhH7zBQ0t7Rfh040-3">
          <mxGeometry relative="1" as="geometry" />
        </mxCell>
        <mxCell id="FfElPhH7zBQ0t7Rfh040-10" style="edgeStyle=orthogonalEdgeStyle;rounded=0;orthogonalLoop=1;jettySize=auto;html=1;entryX=0;entryY=0.5;entryDx=0;entryDy=0;" edge="1" parent="1" source="1QVs_rybuDXx98RH7qr--26" target="FfElPhH7zBQ0t7Rfh040-4">
          <mxGeometry relative="1" as="geometry" />
        </mxCell>
        <mxCell id="FfElPhH7zBQ0t7Rfh040-11" style="edgeStyle=orthogonalEdgeStyle;rounded=0;orthogonalLoop=1;jettySize=auto;html=1;entryX=0;entryY=0.5;entryDx=0;entryDy=0;" edge="1" parent="1" source="1QVs_rybuDXx98RH7qr--26" target="FfElPhH7zBQ0t7Rfh040-5">
          <mxGeometry relative="1" as="geometry" />
        </mxCell>
        <mxCell id="FfElPhH7zBQ0t7Rfh040-12" style="edgeStyle=orthogonalEdgeStyle;rounded=0;orthogonalLoop=1;jettySize=auto;html=1;entryX=0;entryY=0.5;entryDx=0;entryDy=0;" edge="1" parent="1" source="1QVs_rybuDXx98RH7qr--26" target="FfElPhH7zBQ0t7Rfh040-6">
          <mxGeometry relative="1" as="geometry" />
        </mxCell>
        <mxCell id="1QVs_rybuDXx98RH7qr--26" value="05_Calib_before" style="rounded=0;whiteSpace=wrap;html=1;fillColor=#fff2cc;strokeColor=#d6b656;" vertex="1" parent="1">
          <mxGeometry x="800" y="440" width="120" height="40" as="geometry" />
        </mxCell>
        <mxCell id="1QVs_rybuDXx98RH7qr--38" style="edgeStyle=orthogonalEdgeStyle;rounded=0;orthogonalLoop=1;jettySize=auto;html=1;entryX=0;entryY=0.5;entryDx=0;entryDy=0;" edge="1" parent="1" source="1QVs_rybuDXx98RH7qr--31" target="1QVs_rybuDXx98RH7qr--35">
          <mxGeometry relative="1" as="geometry" />
        </mxCell>
        <mxCell id="1QVs_rybuDXx98RH7qr--39" style="edgeStyle=orthogonalEdgeStyle;rounded=0;orthogonalLoop=1;jettySize=auto;html=1;entryX=0;entryY=0.5;entryDx=0;entryDy=0;" edge="1" parent="1" source="1QVs_rybuDXx98RH7qr--31" target="1QVs_rybuDXx98RH7qr--36">
          <mxGeometry relative="1" as="geometry" />
        </mxCell>
        <mxCell id="1QVs_rybuDXx98RH7qr--40" style="edgeStyle=orthogonalEdgeStyle;rounded=0;orthogonalLoop=1;jettySize=auto;html=1;entryX=0;entryY=0.5;entryDx=0;entryDy=0;" edge="1" parent="1" source="1QVs_rybuDXx98RH7qr--31" target="1QVs_rybuDXx98RH7qr--37">
          <mxGeometry relative="1" as="geometry" />
        </mxCell>
        <mxCell id="1QVs_rybuDXx98RH7qr--47" style="edgeStyle=orthogonalEdgeStyle;rounded=0;orthogonalLoop=1;jettySize=auto;html=1;entryX=0;entryY=0.5;entryDx=0;entryDy=0;" edge="1" parent="1" source="1QVs_rybuDXx98RH7qr--31" target="1QVs_rybuDXx98RH7qr--33">
          <mxGeometry relative="1" as="geometry" />
        </mxCell>
        <mxCell id="1QVs_rybuDXx98RH7qr--50" style="edgeStyle=orthogonalEdgeStyle;rounded=0;orthogonalLoop=1;jettySize=auto;html=1;entryX=0;entryY=0.5;entryDx=0;entryDy=0;" edge="1" parent="1" source="1QVs_rybuDXx98RH7qr--31" target="1QVs_rybuDXx98RH7qr--48">
          <mxGeometry relative="1" as="geometry" />
        </mxCell>
        <mxCell id="1QVs_rybuDXx98RH7qr--31" value="drinking" style="rounded=0;whiteSpace=wrap;html=1;fillColor=#fff2cc;strokeColor=#d6b656;" vertex="1" parent="1">
          <mxGeometry x="1000" y="280" width="120" height="40" as="geometry" />
        </mxCell>
        <mxCell id="1QVs_rybuDXx98RH7qr--51" style="edgeStyle=orthogonalEdgeStyle;rounded=0;orthogonalLoop=1;jettySize=auto;html=1;entryX=0;entryY=0.5;entryDx=0;entryDy=0;" edge="1" parent="1" source="1QVs_rybuDXx98RH7qr--33" target="1QVs_rybuDXx98RH7qr--41">
          <mxGeometry relative="1" as="geometry" />
        </mxCell>
        <mxCell id="1QVs_rybuDXx98RH7qr--52" style="edgeStyle=orthogonalEdgeStyle;rounded=0;orthogonalLoop=1;jettySize=auto;html=1;entryX=0;entryY=0.5;entryDx=0;entryDy=0;" edge="1" parent="1" source="1QVs_rybuDXx98RH7qr--33" target="1QVs_rybuDXx98RH7qr--42">
          <mxGeometry relative="1" as="geometry" />
        </mxCell>
        <mxCell id="1QVs_rybuDXx98RH7qr--53" style="edgeStyle=orthogonalEdgeStyle;rounded=0;orthogonalLoop=1;jettySize=auto;html=1;entryX=0;entryY=0.5;entryDx=0;entryDy=0;" edge="1" parent="1" source="1QVs_rybuDXx98RH7qr--33" target="1QVs_rybuDXx98RH7qr--43">
          <mxGeometry relative="1" as="geometry" />
        </mxCell>
        <mxCell id="1QVs_rybuDXx98RH7qr--54" style="edgeStyle=orthogonalEdgeStyle;rounded=0;orthogonalLoop=1;jettySize=auto;html=1;entryX=0;entryY=0.5;entryDx=0;entryDy=0;" edge="1" parent="1" source="1QVs_rybuDXx98RH7qr--33" target="1QVs_rybuDXx98RH7qr--49">
          <mxGeometry relative="1" as="geometry" />
        </mxCell>
        <mxCell id="1QVs_rybuDXx98RH7qr--55" style="edgeStyle=orthogonalEdgeStyle;rounded=0;orthogonalLoop=1;jettySize=auto;html=1;entryX=0;entryY=0.5;entryDx=0;entryDy=0;" edge="1" parent="1" source="1QVs_rybuDXx98RH7qr--33" target="1QVs_rybuDXx98RH7qr--44">
          <mxGeometry relative="1" as="geometry" />
        </mxCell>
        <mxCell id="1QVs_rybuDXx98RH7qr--33" value="cam1" style="rounded=0;whiteSpace=wrap;html=1;fillColor=#fff2cc;strokeColor=#d6b656;" vertex="1" parent="1">
          <mxGeometry x="1200" y="120" width="120" height="40" as="geometry" />
        </mxCell>
        <mxCell id="1QVs_rybuDXx98RH7qr--35" value="cam2" style="rounded=0;whiteSpace=wrap;html=1;fillColor=#fff2cc;strokeColor=#d6b656;" vertex="1" parent="1">
          <mxGeometry x="1200" y="200" width="120" height="40" as="geometry" />
        </mxCell>
        <mxCell id="1QVs_rybuDXx98RH7qr--36" value="..." style="rounded=0;whiteSpace=wrap;html=1;fillColor=#fff2cc;strokeColor=#d6b656;" vertex="1" parent="1">
          <mxGeometry x="1200" y="280" width="120" height="40" as="geometry" />
        </mxCell>
        <mxCell id="1QVs_rybuDXx98RH7qr--37" value="cam10" style="rounded=0;whiteSpace=wrap;html=1;fillColor=#fff2cc;strokeColor=#d6b656;" vertex="1" parent="1">
          <mxGeometry x="1200" y="440" width="120" height="40" as="geometry" />
        </mxCell>
        <mxCell id="1QVs_rybuDXx98RH7qr--41" value="trial_1[...].mp4" style="rounded=0;whiteSpace=wrap;html=1;fillColor=#d5e8d4;strokeColor=#82b366;" vertex="1" parent="1">
          <mxGeometry x="1400" y="120" width="120" height="40" as="geometry" />
        </mxCell>
        <mxCell id="1QVs_rybuDXx98RH7qr--42" value="trial_2[...].mp4" style="rounded=0;whiteSpace=wrap;html=1;fillColor=#d5e8d4;strokeColor=#82b366;" vertex="1" parent="1">
          <mxGeometry x="1400" y="200" width="120" height="40" as="geometry" />
        </mxCell>
        <mxCell id="1QVs_rybuDXx98RH7qr--43" value="trial_[...].mp4" style="rounded=0;whiteSpace=wrap;html=1;fillColor=#d5e8d4;strokeColor=#82b366;" vertex="1" parent="1">
          <mxGeometry x="1400" y="280" width="120" height="40" as="geometry" />
        </mxCell>
        <mxCell id="1QVs_rybuDXx98RH7qr--44" value="trial_90[...].mp4" style="rounded=0;whiteSpace=wrap;html=1;fillColor=#d5e8d4;strokeColor=#82b366;" vertex="1" parent="1">
          <mxGeometry x="1400" y="440" width="120" height="40" as="geometry" />
        </mxCell>
        <mxCell id="1QVs_rybuDXx98RH7qr--48" value="cam9" style="rounded=0;whiteSpace=wrap;html=1;fillColor=#fff2cc;strokeColor=#d6b656;" vertex="1" parent="1">
          <mxGeometry x="1200" y="360" width="120" height="40" as="geometry" />
        </mxCell>
        <mxCell id="1QVs_rybuDXx98RH7qr--49" value="trial_89[...].mp4" style="rounded=0;whiteSpace=wrap;html=1;fillColor=#d5e8d4;strokeColor=#82b366;" vertex="1" parent="1">
          <mxGeometry x="1400" y="360" width="120" height="40" as="geometry" />
        </mxCell>
        <mxCell id="FfElPhH7zBQ0t7Rfh040-1" value="Calib_full_P01.toml" style="rounded=0;whiteSpace=wrap;html=1;fillColor=#d5e8d4;strokeColor=#82b366;" vertex="1" parent="1">
          <mxGeometry x="1000" y="440" width="120" height="40" as="geometry" />
        </mxCell>
        <mxCell id="FfElPhH7zBQ0t7Rfh040-2" value="cam1.mp4" style="rounded=0;whiteSpace=wrap;html=1;fillColor=#d5e8d4;strokeColor=#82b366;" vertex="1" parent="1">
          <mxGeometry x="1000" y="520" width="120" height="40" as="geometry" />
        </mxCell>
        <mxCell id="FfElPhH7zBQ0t7Rfh040-3" value="cam2.mp4" style="rounded=0;whiteSpace=wrap;html=1;fillColor=#d5e8d4;strokeColor=#82b366;" vertex="1" parent="1">
          <mxGeometry x="1000" y="600" width="120" height="40" as="geometry" />
        </mxCell>
        <mxCell id="FfElPhH7zBQ0t7Rfh040-4" value="..." style="rounded=0;whiteSpace=wrap;html=1;fillColor=#d5e8d4;strokeColor=#82b366;" vertex="1" parent="1">
          <mxGeometry x="1000" y="680" width="120" height="40" as="geometry" />
        </mxCell>
        <mxCell id="FfElPhH7zBQ0t7Rfh040-5" value="cam9.mp4" style="rounded=0;whiteSpace=wrap;html=1;fillColor=#d5e8d4;strokeColor=#82b366;" vertex="1" parent="1">
          <mxGeometry x="1000" y="760" width="120" height="40" as="geometry" />
        </mxCell>
        <mxCell id="FfElPhH7zBQ0t7Rfh040-6" value="cam10.mp4" style="rounded=0;whiteSpace=wrap;html=1;fillColor=#d5e8d4;strokeColor=#82b366;" vertex="1" parent="1">
          <mxGeometry x="1000" y="840" width="120" height="50" as="geometry" />
        </mxCell>
      </root>
    </mxGraphModel>
  </diagram>
  <diagram id="YZaUhyZvTlB1UHAoNtcc" name="root_OMC">
    <mxGraphModel dx="1228" dy="1060" grid="1" gridSize="10" guides="1" tooltips="1" connect="1" arrows="1" fold="1" page="1" pageScale="1" pageWidth="827" pageHeight="1169" math="0" shadow="0">
      <root>
        <mxCell id="0" />
        <mxCell id="1" parent="0" />
        <mxCell id="MygFNePr_JdoJVPoexAK-1" value="Folder" style="rounded=0;whiteSpace=wrap;html=1;fillColor=#fff2cc;strokeColor=#d6b656;" vertex="1" parent="1">
          <mxGeometry width="120" height="40" as="geometry" />
        </mxCell>
        <mxCell id="MygFNePr_JdoJVPoexAK-2" value="File" style="rounded=0;whiteSpace=wrap;html=1;fillColor=#d5e8d4;strokeColor=#82b366;" vertex="1" parent="1">
          <mxGeometry x="160" width="120" height="40" as="geometry" />
        </mxCell>
        <mxCell id="1jybY3eS5txzqj1W1nXL-7" style="edgeStyle=orthogonalEdgeStyle;rounded=0;orthogonalLoop=1;jettySize=auto;html=1;entryX=0;entryY=0.5;entryDx=0;entryDy=0;" edge="1" parent="1" source="1jybY3eS5txzqj1W1nXL-1" target="1jybY3eS5txzqj1W1nXL-4">
          <mxGeometry relative="1" as="geometry" />
        </mxCell>
        <mxCell id="1jybY3eS5txzqj1W1nXL-1" value="OMC_data_newStruct" style="rounded=0;whiteSpace=wrap;html=1;fillColor=#fff2cc;strokeColor=#d6b656;" vertex="1" parent="1">
          <mxGeometry y="120" width="200" height="40" as="geometry" />
        </mxCell>
        <mxCell id="1jybY3eS5txzqj1W1nXL-2" value="AIM models" style="rounded=0;whiteSpace=wrap;html=1;fillColor=#fff2cc;strokeColor=#d6b656;" vertex="1" parent="1">
          <mxGeometry x="280" y="120" width="120" height="40" as="geometry" />
        </mxCell>
        <mxCell id="1jybY3eS5txzqj1W1nXL-3" value="Calibrations" style="rounded=0;whiteSpace=wrap;html=1;fillColor=#fff2cc;strokeColor=#d6b656;" vertex="1" parent="1">
          <mxGeometry x="280" y="200" width="120" height="40" as="geometry" />
        </mxCell>
        <mxCell id="1jybY3eS5txzqj1W1nXL-14" style="edgeStyle=orthogonalEdgeStyle;rounded=0;orthogonalLoop=1;jettySize=auto;html=1;entryX=0;entryY=0.5;entryDx=0;entryDy=0;" edge="1" parent="1" source="1jybY3eS5txzqj1W1nXL-4" target="1jybY3eS5txzqj1W1nXL-11">
          <mxGeometry relative="1" as="geometry" />
        </mxCell>
        <mxCell id="1jybY3eS5txzqj1W1nXL-4" value="Data" style="rounded=0;whiteSpace=wrap;html=1;fillColor=#fff2cc;strokeColor=#d6b656;" vertex="1" parent="1">
          <mxGeometry x="280" y="280" width="120" height="40" as="geometry" />
        </mxCell>
        <mxCell id="1jybY3eS5txzqj1W1nXL-5" value="Meshes" style="rounded=0;whiteSpace=wrap;html=1;fillColor=#fff2cc;strokeColor=#d6b656;" vertex="1" parent="1">
          <mxGeometry x="280" y="360" width="120" height="40" as="geometry" />
        </mxCell>
        <mxCell id="1jybY3eS5txzqj1W1nXL-6" value="Messages" style="rounded=0;whiteSpace=wrap;html=1;fillColor=#fff2cc;strokeColor=#d6b656;" vertex="1" parent="1">
          <mxGeometry x="280" y="440" width="120" height="40" as="geometry" />
        </mxCell>
        <mxCell id="1jybY3eS5txzqj1W1nXL-20" style="edgeStyle=orthogonalEdgeStyle;rounded=0;orthogonalLoop=1;jettySize=auto;html=1;entryX=0;entryY=0.5;entryDx=0;entryDy=0;" edge="1" parent="1" source="1jybY3eS5txzqj1W1nXL-8" target="1jybY3eS5txzqj1W1nXL-18">
          <mxGeometry relative="1" as="geometry" />
        </mxCell>
        <mxCell id="1jybY3eS5txzqj1W1nXL-8" value="P01" style="rounded=0;whiteSpace=wrap;html=1;fillColor=#fff2cc;strokeColor=#d6b656;" vertex="1" parent="1">
          <mxGeometry x="480" y="120" width="120" height="40" as="geometry" />
        </mxCell>
        <mxCell id="1jybY3eS5txzqj1W1nXL-10" value="P02" style="rounded=0;whiteSpace=wrap;html=1;fillColor=#fff2cc;strokeColor=#d6b656;" vertex="1" parent="1">
          <mxGeometry x="480" y="200" width="120" height="40" as="geometry" />
        </mxCell>
        <mxCell id="1jybY3eS5txzqj1W1nXL-11" value="..." style="rounded=0;whiteSpace=wrap;html=1;fillColor=#fff2cc;strokeColor=#d6b656;" vertex="1" parent="1">
          <mxGeometry x="480" y="280" width="120" height="40" as="geometry" />
        </mxCell>
        <mxCell id="1jybY3eS5txzqj1W1nXL-12" value="P31" style="rounded=0;whiteSpace=wrap;html=1;fillColor=#fff2cc;strokeColor=#d6b656;" vertex="1" parent="1">
          <mxGeometry x="480" y="360" width="120" height="40" as="geometry" />
        </mxCell>
        <mxCell id="1jybY3eS5txzqj1W1nXL-13" value="P34" style="rounded=0;whiteSpace=wrap;html=1;fillColor=#fff2cc;strokeColor=#d6b656;" vertex="1" parent="1">
          <mxGeometry x="480" y="440" width="120" height="40" as="geometry" />
        </mxCell>
        <mxCell id="1jybY3eS5txzqj1W1nXL-15" value="c3d" style="rounded=0;whiteSpace=wrap;html=1;fillColor=#fff2cc;strokeColor=#d6b656;" vertex="1" parent="1">
          <mxGeometry x="680" y="120" width="120" height="40" as="geometry" />
        </mxCell>
        <mxCell id="1jybY3eS5txzqj1W1nXL-16" value="mat" style="rounded=0;whiteSpace=wrap;html=1;fillColor=#fff2cc;strokeColor=#d6b656;" vertex="1" parent="1">
          <mxGeometry x="680" y="200" width="120" height="40" as="geometry" />
        </mxCell>
        <mxCell id="1jybY3eS5txzqj1W1nXL-17" value="qtm" style="rounded=0;whiteSpace=wrap;html=1;fillColor=#fff2cc;strokeColor=#d6b656;" vertex="1" parent="1">
          <mxGeometry x="680" y="280" width="120" height="40" as="geometry" />
        </mxCell>
        <mxCell id="1jybY3eS5txzqj1W1nXL-26" style="edgeStyle=orthogonalEdgeStyle;rounded=0;orthogonalLoop=1;jettySize=auto;html=1;entryX=0;entryY=0.5;entryDx=0;entryDy=0;" edge="1" parent="1" source="1jybY3eS5txzqj1W1nXL-18" target="1jybY3eS5txzqj1W1nXL-21">
          <mxGeometry relative="1" as="geometry" />
        </mxCell>
        <mxCell id="1jybY3eS5txzqj1W1nXL-27" style="edgeStyle=orthogonalEdgeStyle;rounded=0;orthogonalLoop=1;jettySize=auto;html=1;entryX=0;entryY=0.5;entryDx=0;entryDy=0;" edge="1" parent="1" source="1jybY3eS5txzqj1W1nXL-18" target="1jybY3eS5txzqj1W1nXL-22">
          <mxGeometry relative="1" as="geometry" />
        </mxCell>
        <mxCell id="1jybY3eS5txzqj1W1nXL-28" style="edgeStyle=orthogonalEdgeStyle;rounded=0;orthogonalLoop=1;jettySize=auto;html=1;entryX=0;entryY=0.5;entryDx=0;entryDy=0;" edge="1" parent="1" source="1jybY3eS5txzqj1W1nXL-18" target="1jybY3eS5txzqj1W1nXL-23">
          <mxGeometry relative="1" as="geometry" />
        </mxCell>
        <mxCell id="1jybY3eS5txzqj1W1nXL-29" style="edgeStyle=orthogonalEdgeStyle;rounded=0;orthogonalLoop=1;jettySize=auto;html=1;entryX=0;entryY=0.5;entryDx=0;entryDy=0;" edge="1" parent="1" source="1jybY3eS5txzqj1W1nXL-18" target="1jybY3eS5txzqj1W1nXL-24">
          <mxGeometry relative="1" as="geometry" />
        </mxCell>
        <mxCell id="1jybY3eS5txzqj1W1nXL-30" style="edgeStyle=orthogonalEdgeStyle;rounded=0;orthogonalLoop=1;jettySize=auto;html=1;entryX=0;entryY=0.5;entryDx=0;entryDy=0;" edge="1" parent="1" source="1jybY3eS5txzqj1W1nXL-18" target="1jybY3eS5txzqj1W1nXL-25">
          <mxGeometry relative="1" as="geometry" />
        </mxCell>
        <mxCell id="1jybY3eS5txzqj1W1nXL-18" value="trc" style="rounded=0;whiteSpace=wrap;html=1;fillColor=#fff2cc;strokeColor=#d6b656;" vertex="1" parent="1">
          <mxGeometry x="680" y="360" width="120" height="40" as="geometry" />
        </mxCell>
        <mxCell id="1jybY3eS5txzqj1W1nXL-19" value="trcLog.txt" style="rounded=0;whiteSpace=wrap;html=1;fillColor=#d5e8d4;strokeColor=#82b366;" vertex="1" parent="1">
          <mxGeometry x="680" y="440" width="120" height="40" as="geometry" />
        </mxCell>
        <mxCell id="1jybY3eS5txzqj1W1nXL-21" value="trial_1[...].trc" style="rounded=0;whiteSpace=wrap;html=1;fillColor=#d5e8d4;strokeColor=#82b366;" vertex="1" parent="1">
          <mxGeometry x="880" y="360" width="120" height="40" as="geometry" />
        </mxCell>
        <mxCell id="1jybY3eS5txzqj1W1nXL-22" value="trial_2[...].trc" style="rounded=0;whiteSpace=wrap;html=1;fillColor=#d5e8d4;strokeColor=#82b366;" vertex="1" parent="1">
          <mxGeometry x="880" y="440" width="120" height="40" as="geometry" />
        </mxCell>
        <mxCell id="1jybY3eS5txzqj1W1nXL-23" value="trial_[...].trc" style="rounded=0;whiteSpace=wrap;html=1;fillColor=#d5e8d4;strokeColor=#82b366;" vertex="1" parent="1">
          <mxGeometry x="880" y="520" width="120" height="40" as="geometry" />
        </mxCell>
        <mxCell id="1jybY3eS5txzqj1W1nXL-24" value="trial_80[...].trc" style="rounded=0;whiteSpace=wrap;html=1;fillColor=#d5e8d4;strokeColor=#82b366;" vertex="1" parent="1">
          <mxGeometry x="880" y="600" width="120" height="40" as="geometry" />
        </mxCell>
        <mxCell id="1jybY3eS5txzqj1W1nXL-25" value="trial_81[...].trc" style="rounded=0;whiteSpace=wrap;html=1;fillColor=#d5e8d4;strokeColor=#82b366;" vertex="1" parent="1">
          <mxGeometry x="880" y="680" width="120" height="40" as="geometry" />
        </mxCell>
      </root>
    </mxGraphModel>
  </diagram>
</mxfile>
